<svg xmlns="http://www.w3.org/2000/svg" viewBox="0 0 24.512 41.805"><defs><style>.a{fill:#0129ad;}</style></defs><g transform="translate(-369.188 -467.418)"><g transform="translate(369.188 467.418)"><path class="a" d="M122.954,11.063h5.764a1.689,1.689,0,0,0,1.689-1.689V1.689A1.689,1.689,0,0,0,128.718,0h-5.764a11.309,11.309,0,0,0-11.3,11.3v4.075h-4.075a1.689,1.689,0,0,0-1.689,1.689v7.686a1.689,1.689,0,0,0,1.689,1.689h4.075V40.117a1.689,1.689,0,0,0,1.689,1.689h7.686a1.689,1.689,0,0,0,1.689-1.689V26.434H126.8a1.689,1.689,0,0,0,1.638-1.279l1.921-7.686a1.689,1.689,0,0,0-1.638-2.1h-6V11.3A.233.233,0,0,1,122.954,11.063Zm-1.921,7.686h5.523l-1.077,4.308h-4.446a1.689,1.689,0,0,0-1.689,1.689V38.428h-4.308V24.746a1.689,1.689,0,0,0-1.689-1.689h-4.075V18.749h4.075a1.689,1.689,0,0,0,1.689-1.689V11.3a7.927,7.927,0,0,1,7.918-7.918h4.075V7.686h-4.075a3.614,3.614,0,0,0-3.61,3.61V17.06A1.689,1.689,0,0,0,121.032,18.749Z" transform="translate(-105.894)"/></g></g></svg>