<svg xmlns="http://www.w3.org/2000/svg" viewBox="0 0 41.805 34.721"><defs><style>.a{fill:#0129ad;}</style></defs><g transform="translate(-159.424 -175.021)"><g transform="translate(159.424 175.021)"><path class="a" d="M41.066,43.7a1.688,1.688,0,0,0-1.924.016A17.314,17.314,0,0,1,35.1,45.834,9.515,9.515,0,0,0,19.213,52.94c-6.961-.621-11.361-5.026-14.46-8.9a1.689,1.689,0,0,0-2.887.428A25.039,25.039,0,0,0,.442,54.843a18.059,18.059,0,0,0,9.8,14.837,18.776,18.776,0,0,1-8.488,1.675,1.689,1.689,0,0,0-.887,3.164,27.926,27.926,0,0,0,13.382,3.59h.106A24.339,24.339,0,0,0,26.7,74.816a22.859,22.859,0,0,0,8.387-8.623A26.975,26.975,0,0,0,38.311,52.95c0-.289-.015-.58-.042-.869A15.161,15.161,0,0,0,41.757,45.5,1.688,1.688,0,0,0,41.066,43.7ZM35.3,50.3a1.689,1.689,0,0,0-.473,1.519,6.171,6.171,0,0,1,.11,1.133c0,8.325-3.624,15.232-9.942,18.949A21.544,21.544,0,0,1,8.367,73.951l.178-.05a21.986,21.986,0,0,0,6.318-2.954,1.689,1.689,0,0,0-.321-2.965c-6.561-2.624-10.169-7.1-10.725-13.309a21.25,21.25,0,0,1,.389-6.083A27.74,27.74,0,0,0,9.279,52.95,20.889,20.889,0,0,0,20.9,56.391,1.689,1.689,0,0,0,22.591,54.7V52.945a6.137,6.137,0,0,1,10.766-4.068,1.688,1.688,0,0,0,1.761.509q.7-.211,1.383-.47A11.806,11.806,0,0,1,35.3,50.3Z" transform="translate(0.001 -43.389)"/></g></g></svg>