<?xml version="1.0" standalone="no"?>
<!DOCTYPE svg PUBLIC "-//W3C//DTD SVG 1.1//EN" "http://www.w3.org/Graphics/SVG/1.1/DTD/svg11.dtd" >
<svg xmlns="http://www.w3.org/2000/svg">
<metadata>Generated by IcoMoon</metadata>
<defs>
<font id="Komtrast" horiz-adv-x="1024">
<font-face units-per-em="1024" ascent="960" descent="-64" />
<missing-glyph horiz-adv-x="1024" />
<glyph unicode="&#x20;" horiz-adv-x="512" d="" />
<glyph unicode="&#xe900;" glyph-name="mark" d="M1004.88 940.752c-18.72 18.898-46.8 24.41-71.28 14.174l-893.2-370.088c-25.236-10.24-41.306-35.44-40.361-63 1.024-26.768 18.827-51.176 44.665-59.056l361.488-120.472 120.44-361.424c8.744-25.985 32.454-44.096 59.71-44.883h2.363c26.389 0 50.257 15.749 60.419 40.158l369.912 892.96c10.080 24.386 4.48 52.734-14.16 71.632zM595.328 187.976l-75.384 226.776c-6.464 18.896-21.824 34.648-41.36 40.944l-226.232 75.592 585.328 242.528-242.352-585.84z" />
<glyph unicode="&#xe901;" glyph-name="user-o" d="M512 960.003c-282.408 0-512-229.592-512-512s229.592-512 512-512 512 229.592 512 512-229.592 512-512 512zM512 2.293c-131.503 0-250.072 57.667-331.992 148.749 26.947 60.362 69.524 111.562 123.958 149.827 60.901 42.577 133.12 65.213 208.034 65.213s147.133-22.636 208.034-65.213c54.434-38.265 97.011-89.465 123.958-149.827-81.92-91.082-200.488-148.749-331.992-148.749zM358.939 585.973c0 84.615 68.446 153.061 153.061 153.061s153.061-68.446 153.061-153.061-68.446-153.6-153.061-153.6-153.061 68.985-153.061 153.6zM758.299 355.304c-35.032 24.253-72.758 43.116-112.64 56.051 52.278 40.421 86.232 103.478 86.232 174.619 0 121.263-98.627 219.891-219.891 219.891s-219.891-98.627-219.891-219.891c0-71.141 33.954-134.198 86.232-174.619-39.882-12.935-77.608-31.798-112.64-56.051-54.434-38.265-98.627-87.848-130.425-144.977-43.655 68.985-68.985 150.366-68.985 237.676 0 245.76 199.949 445.709 445.709 445.709s445.709-199.949 445.709-445.709c0-87.309-25.331-168.691-68.985-237.676-31.798 57.128-75.992 106.712-130.425 144.977z" />
<glyph unicode="&#xe902;" glyph-name="angle-left" horiz-adv-x="576" d="M539.635-64l35.968 33.92-503.68 478.080 503.68 477.44-35.968 34.563-539.648-512 539.648-512z" />
<glyph unicode="&#xe903;" glyph-name="angle-up" d="M1024.002 196.16l-33.92-35.968-478.080 503.68-477.44-503.68-34.563 35.968 512 539.648 512-539.648z" />
<glyph unicode="&#xe904;" glyph-name="angle-down" d="M1024.002 699.84l-33.92 35.968-478.080-503.68-477.44 503.68-34.563-35.968 512-539.648 512 539.648z" />
<glyph unicode="&#xe905;" glyph-name="angle-right" horiz-adv-x="576" d="M36.365-64l-35.968 33.92 503.68 478.080-503.68 477.44 35.968 34.563 539.648-512-539.648-512z" />
<glyph unicode="&#xe906;" glyph-name="minus" d="M45.072 493.166c-24.864 0-45.072-20.487-45.072-45.631 0-24.212 20.208-44.7 45.166-44.7h933.762c24.864 0 45.072 20.487 45.072 44.7 0 25.144-20.208 45.631-45.166 45.631h-933.762z" />
<glyph unicode="&#xe907;" glyph-name="plus" horiz-adv-x="1025" d="M557.48 493.191l-0.093 422.093c0 24.226-20.219 44.725-45.191 44.725-24.878 0-45.098-20.499-45.098-44.725v-422.093h-421.907c-24.972 0-45.191-20.499-45.191-45.657 0.093-24.226 20.219-44.725 45.191-44.725h421.907l0.093-422.093c0-25.158 20.219-44.725 45.191-44.725 12.486 0 23.76 4.659 31.96 13.045 8.2 7.454 13.231 19.567 13.231 31.68l-0.093 422.093h422c12.393 0 23.76 4.659 31.96 13.045 8.106 8.386 13.231 19.567 13.231 31.68 0 25.158-20.219 45.657-45.191 45.657h-422z" />
<glyph unicode="&#xe908;" glyph-name="search" d="M1011.644 8.467l-246.232 246.232c61.001 74.359 97.958 169.646 97.958 273.838 0 238.217-193.691 431.463-431.908 431.463s-431.463-193.245-431.463-431.463c0-238.217 193.245-431.463 431.463-431.463 104.192 0 199.034 36.512 273.393 97.513l246.232-246.232c16.92-16.475 43.636-16.475 60.556 0 16.475 16.475 16.475 43.636 0 60.111zM431.463 182.566c-190.574 0-345.972 155.398-345.972 345.972s155.398 345.972 345.972 345.972c190.574 0 345.972-155.398 345.972-345.972s-155.398-345.972-345.972-345.972z" />
<glyph unicode="&#xe909;" glyph-name="shopping-basket" horiz-adv-x="1168" d="M132.761 550.4c14.552 0 26.408-11.498 26.408-25.51 0-14.192-11.857-25.69-26.408-25.69-14.731 0-26.588 11.498-26.588 25.69 0 14.013 11.857 25.51 26.588 25.51zM1034.959 550.4c14.731 0 26.588-11.498 26.588-25.51 0-14.192-11.857-25.69-26.588-25.69-14.552 0-26.408 11.498-26.408 25.69 0 14.013 11.857 25.51 26.408 25.51zM344.926 320.090c-15.809 0-26.408-10.24-26.408-25.69v-204.8c0-15.27 10.599-25.69 26.408-25.69 15.989 0 26.588 10.42 26.588 25.69v204.8c0 15.45-10.599 25.69-26.588 25.69zM504.275 320.090c-15.989 0-26.588-10.24-26.588-25.69v-204.8c0-15.27 10.599-25.69 26.588-25.69 15.809 0 26.588 10.42 26.588 25.69v204.8c0 15.45-10.779 25.69-26.588 25.69zM663.444 320.090c-15.809 0-26.588-10.24-26.588-25.69v-204.8c0-15.27 10.779-25.69 26.588-25.69 15.989 0 26.588 10.42 26.588 25.69v204.8c0 15.45-10.599 25.69-26.588 25.69zM1088.135 652.8h-87.669l-63.596 202.285c-8.084 30.72-39.882 53.715-74.375 53.715h-66.291v25.69c0 15.27-10.599 25.51-26.588 25.51h-371.514c-15.989 0-26.588-10.24-26.588-25.51v-25.69h-42.397c-34.493 0-63.775-17.965-74.375-48.685l-87.489-207.315h-87.669c-45.092 0-79.585-33.235-79.585-76.89v-102.22c0-43.655 34.493-76.89 79.585-76.89h2.695l45.092-391.635c5.389-40.96 39.882-69.165 79.585-69.165h753.808c39.702 0 74.195 28.205 79.585 69.165l45.092 391.635h2.695c45.092 0 79.585 33.235 79.585 76.89v102.22c0 43.655-34.493 76.89-79.585 76.89zM424.691 908.8h318.338v-51.2h-318.338v51.2zM1117.238 473.69h-2.515c0-15.45-10.779-25.69-26.588-25.69h-875.789c-15.989 0-26.588-10.24-26.588-25.51 0-15.45 10.599-25.69 26.588-25.69h820.098l-45.272-386.605c-2.515-12.755-13.114-22.995-26.408-22.995h-753.808c-13.294 0-23.893 10.24-26.408 22.995l-47.787 414.81c-2.695 12.755-13.294 22.995-26.588 22.995h-26.588c-15.809 0-26.588 10.24-26.588 25.69v102.22c0 15.45 10.779 25.69 26.588 25.69h796.205c15.989 0 26.588 10.24 26.588 25.51 0 15.45-10.599 25.69-26.588 25.69h-650.15l76.89 189.53c5.389 10.24 13.294 15.27 26.588 15.27h42.397v-25.51c0-15.45 10.599-25.69 26.588-25.69h371.514c15.989 0 26.588 10.24 26.588 25.69v25.51h66.291c10.599 0 21.199-7.725 26.588-17.965l68.985-220.070c2.695-10.24 13.294-17.965 26.588-17.965h106.173c15.809 0 26.408-10.24 26.408-25.51v-102.4zM822.613 320.090c-15.809 0-26.408-10.24-26.408-25.69v-204.8c0-15.27 10.599-25.69 26.408-25.69 15.989 0 26.588 10.42 26.588 25.69v204.8c0 15.45-10.599 25.69-26.588 25.69z" />
<glyph unicode="&#xe90a;" glyph-name="star" d="M512 960.002l168.96-322.048 343.040-69.12-239.104-268.288 43.52-364.544-316.416 156.16-316.416-156.16 43.52 364.544-239.104 268.288 343.040 69.12 168.96 322.048z" />
<glyph unicode="&#xe90b;" glyph-name="star-o" d="M512 960.002l168.96-322.048 343.040-69.12-239.104-268.288 43.52-364.544-316.416 156.16-316.416-156.16 43.52 364.544-239.104 268.288 343.040 69.12 168.96 322.048zM402.944 551.938l-223.232-45.056 155.648-174.080-28.16-237.056 205.312 101.376 205.824-101.376-28.16 237.056 155.136 174.080-223.232 45.056-109.568 209.408-109.568-209.408z" />
<glyph unicode="&#xe90c;" glyph-name="heart" horiz-adv-x="1280" d="M915.369 959.892c-0.615 0.004-1.343 0.006-2.071 0.006-111.079 0-209.96-52.23-273.422-133.471l-0.577-0.767c-62.617 81.934-160.387 134.258-270.379 134.258-1.497 0-2.992-0.010-4.485-0.029l0.227 0.002c-2.435 0.064-5.301 0.101-8.177 0.101-180.527 0-327.327-144.399-331.2-323.997l-0.006-0.361v-2.926c-1.521-27.151 3.101-114.629 77.122-238.27 97.163-162.875 272.969-315.187 521.245-452.403 4.74-3.411 10.562-5.607 16.871-6.022l0.098-0.005h6.173c3.692 0.23 6.949 1.919 9.233 4.492l0.012 0.014c610.714 339.383 601.439 666.595 598.367 696.759 0.263 177.854-152.459 322.619-339.032 322.619z" />
<glyph unicode="&#xe90d;" glyph-name="times" d="M576.212 448.033l298.399 298.531c17.13 17.13 17.328 45.923-0.329 63.58-17.592 17.592-46.384 17.394-63.514 0.264l-298.465-298.465-298.333 298.333c-17.658 17.658-46.45 17.46-64.239-0.329-17.065-17.196-17.328-45.923 0.329-63.58l298.333-298.333-298.399-298.531c-17.789-17.789-17.328-45.923 0.33-63.58 8.829-8.829 20.095-13.507 31.823-13.375 11.069-0.527 23.192 4.48 31.757 13.045l298.399 298.531 298.399-298.399c8.763-8.763 20.095-13.507 31.823-13.375 11.662 0.198 23.192 4.48 31.757 13.045 17.789 17.789 17.987 46.582 0.329 64.239l-298.399 298.399z" />
<glyph unicode="&#xe90e;" glyph-name="bar" horiz-adv-x="1339" d="M73.255 521.255h1192.566c40.458 0 73.255-32.798 73.255-73.255s-32.798-73.255-73.255-73.255h-1192.566c-40.458 0-73.255 32.798-73.255 73.255s32.798 73.255 73.255 73.255zM73.255 960h1192.566c40.458 0 73.255-32.798 73.255-73.255s-32.798-73.255-73.255-73.255h-1192.566c-40.458 0-73.255 32.798-73.255 73.255s32.798 73.255 73.255 73.255zM73.255 82.511h1192.566c40.458 0 73.255-32.798 73.255-73.255s-32.798-73.255-73.255-73.255h-1192.566c-40.458 0-73.255 32.798-73.255 73.255s32.798 73.255 73.255 73.255z" />
<glyph unicode="&#xe90f;" glyph-name="check" d="M950.694 753.808l-107.066 132.299c-4.472 6.167-11.653 10.131-19.761 10.131s-15.289-3.964-19.713-10.061l-0.049-0.071-434.52-536.787-148.598 183.544c-4.573 5.953-11.696 9.752-19.705 9.752s-15.132-3.799-19.661-9.693l-0.043-0.059-108.073-133.974c-5.148-6.686-8.25-15.177-8.25-24.394s3.103-17.709 8.319-24.489l-0.070 0.094 275.315-340.292c4.659-5.984 11.795-9.85 19.842-10.048l0.032-0.001c8.009 0.202 15.076 4.071 19.604 9.987l0.045 0.062 562.242 694.764c5.096 6.703 8.164 15.191 8.164 24.394s-3.068 17.691-8.237 24.494l0.073-0.1z" />
<glyph unicode="&#xe910;" glyph-name="bar-dot" horiz-adv-x="512" d="M358.4 857.6c0-56.554-45.846-102.4-102.4-102.4s-102.4 45.846-102.4 102.4c0 56.554 45.846 102.4 102.4 102.4s102.4-45.846 102.4-102.4zM358.4 448c0-56.554-45.846-102.4-102.4-102.4s-102.4 45.846-102.4 102.4c0 56.554 45.846 102.4 102.4 102.4s102.4-45.846 102.4-102.4zM358.4 38.4c0-56.554-45.846-102.4-102.4-102.4s-102.4 45.846-102.4 102.4c0 56.554 45.846 102.4 102.4 102.4s102.4-45.846 102.4-102.4z" />
<glyph unicode="&#xe911;" glyph-name="book" horiz-adv-x="896" d="M127.996-63.968c-70.69 0-127.996 57.306-127.996 127.996v0 767.976c0 0 0 0 0 0 0 34.191 13.406 65.252 35.249 88.211l-0.050-0.053c3.787 3.993 9.131 6.478 15.056 6.478 6.972 0 13.141-3.441 16.9-8.718l0.043-0.064 0.672-1.024c2.337-3.333 3.734-7.474 3.734-11.941 0-5.641-2.228-10.761-5.853-14.529l0.006 0.007c-14.304-15.232-23.095-35.788-23.103-58.396v-672.589c22.464 20.251 52.36 32.639 85.149 32.639 0.068 0 0.135 0 0.203 0h-0.010v341.909c0.018 11.48 9.319 20.781 20.798 20.799h1.090c11.473-0.018 20.767-9.323 20.767-20.799v0-341.909h682.635v725.289h-405.907c-11.473 0.018-20.767 9.323-20.767 20.799v1.088c0 0 0 0 0 0 0 11.476 9.294 20.781 20.766 20.799h427.285c11.755-0.036 21.275-9.556 21.311-21.308v-981.316c-0.018-11.776-9.541-21.321-21.306-21.375h-0.005zM42.719 64.028c0-0.019 0-0.041 0-0.064 0-47.104 38.176-85.291 85.276-85.309h725.323v63.998h-704.522c-11.48 0.018-20.781 9.319-20.799 20.798v1.090c0 0.009 0 0.021 0 0.032 0 11.469 9.298 20.767 20.767 20.767 0.011 0 0.023 0 0.034 0h704.52v63.998h-725.321c-0.010 0-0.021 0-0.032 0-47.097 0-85.277-38.18-85.277-85.277 0-0.011 0-0.023 0-0.034v0.002zM426.099 256.022c-11.466 0.036-20.749 9.331-20.767 20.798v1.090c0.018 11.469 9.301 20.763 20.764 20.799h342.392c11.424-0.036 20.671-9.306 20.671-20.735 0-0.023 0-0.045 0-0.068v0.003-1.088c0-0.019 0-0.042 0-0.064 0-11.429-9.247-20.699-20.668-20.735h-0.003zM340.821 256.022c0 0 0 0 0 0-11.469 0-20.767 9.298-20.767 20.767 0 0.011 0 0.023 0 0.034v-0.002 1.088c0 0.009 0 0.021 0 0.032 0 11.469 9.298 20.767 20.767 20.767 0 0 0 0 0 0h1.088c11.442-0.036 20.703-9.32 20.703-20.767 0-0.011 0-0.023 0-0.034v0.002-1.088c0-0.010 0-0.021 0-0.032 0-11.447-9.261-20.731-20.7-20.767h-0.003zM255.448 256.022c-11.466 0.036-20.749 9.331-20.767 20.798v1.090c0.018 11.469 9.301 20.763 20.764 20.799h1.123c0 0 0 0 0 0 11.469 0 20.767-9.298 20.767-20.767 0-0.011 0-0.023 0-0.034v0.002-1.088c0-0.009 0-0.021 0-0.032 0-11.469-9.298-20.767-20.767-20.767 0 0 0 0 0 0v0zM256.984 574.924c-0.043 0.498-0.067 1.078-0.067 1.664 0 11.452 9.284 20.735 20.735 20.735 0.012 0 0.025 0 0.037 0h1.086c0.012 0 0.026 0 0.040 0 10.844 0 19.743-8.324 20.658-18.93l0.005-0.077c10.081-109.35 101.362-194.315 212.488-194.315 117.823 0 213.337 95.514 213.337 213.337 0 111.136-84.981 202.424-193.506 212.428l-0.838 0.062c-10.662 0.996-18.95 9.873-19.007 20.698v1.19c0 0 0 0 0 0 0 11.469 9.298 20.767 20.767 20.767 0.574 0 1.143-0.023 1.706-0.069l-0.074 0.005c131.396-11.901 233.563-121.523 233.563-255.008 0-141.38-114.612-255.992-255.992-255.992-133.464 0-243.073 102.135-254.929 232.509l-0.073 0.995zM537.039 512.046h-49.982c-9.036-25.097-32.639-42.719-60.357-42.719-35.345 0-63.998 28.653-63.998 63.998 0 35.325 28.62 63.965 63.937 63.998h0.003c0.221 0.003 0.483 0.005 0.745 0.005 3.125 0 6.193-0.246 9.186-0.72l-0.331 0.043 28.607 42.943c-10.348 11.329-16.687 26.473-16.687 43.098 0 35.345 28.653 63.998 63.998 63.998s63.998-28.653 63.998-63.998c0-16.625-6.339-31.769-16.732-43.148l0.045 0.050 28.607-42.943c2.634 0.43 5.669 0.676 8.762 0.676 0.227 0 0.454-0.001 0.681-0.004h-0.035c0.011 0 0.025 0 0.039 0 35.345 0 63.998-28.653 63.998-63.998s-28.653-63.998-63.998-63.998c-27.718 0-51.321 17.621-60.216 42.273l-0.141 0.446zM575.982 533.357c0.018-11.774 9.567-21.311 21.343-21.311 11.788 0 21.343 9.556 21.343 21.343 0 11.776-9.538 21.325-21.31 21.343h-0.002c-0.010 0-0.021 0-0.032 0-11.788 0-21.343-9.556-21.343-21.343 0-0.023 0-0.045 0-0.067v0.003zM405.331 533.357c0.018-11.774 9.567-21.311 21.343-21.311 11.788 0 21.343 9.556 21.343 21.343s-9.556 21.343-21.343 21.343c-0.011 0-0.022 0-0.034 0h0.002c-0.010 0-0.021 0-0.032 0-11.77 0-21.311-9.541-21.311-21.311 0-0.034 0-0.068 0-0.101v0.005zM474.001 576.46c5.591-6.076 10.032-13.308 12.916-21.286l0.139-0.441h50.014c3.004 8.458 7.448 15.725 13.097 21.868l-0.041-0.045-28.607 42.847c-2.879-0.421-6.208-0.665-9.592-0.672h-0.007c-3.339 0.010-6.611 0.254-9.813 0.716l0.374-0.044zM490.705 682.697c0-0.009 0-0.021 0-0.032 0-11.788 9.556-21.343 21.343-21.343s21.343 9.556 21.343 21.343c0 11.788-9.556 21.343-21.343 21.343-0.023 0-0.045 0-0.067 0h0.004c-0.019 0-0.042 0-0.064 0-11.735 0-21.247-9.513-21.247-21.247 0-0.023 0-0.045 0-0.068v0.004zM134.268 624.906c-3.88 3.871-6.309 9.195-6.4 15.086v299.208c0.018 11.48 9.319 20.781 20.798 20.799h1.090c11.473-0.018 20.767-9.323 20.767-20.799v-247.704l63.998 63.998v98.429c0.036 11.442 9.32 20.703 20.767 20.703 0 0 0 0 0 0h1.12c0.019 0 0.041 0 0.064 0 11.434 0 20.703-9.269 20.703-20.703 0 0 0 0 0 0v0-98.429l63.998-63.998v247.704c0.018 11.48 9.319 20.781 20.798 20.799h1.090c11.473-0.018 20.767-9.323 20.767-20.799v-298.551c0.001-0.090 0.002-0.197 0.002-0.303 0-9.551-6.145-17.667-14.696-20.61l-0.153-0.046c-1.953-0.646-4.201-1.019-6.535-1.019-5.886 0-11.219 2.369-15.098 6.205l0.002-0.002-91.485 91.645-91.645-91.645c-3.855-3.848-9.177-6.228-15.056-6.228s-11.2 2.38-15.056 6.228v0z" />
<glyph unicode="&#xe912;" glyph-name="filter" horiz-adv-x="842" d="M207.413 549.42c-3.72 3.72-8.88 5.862-14.14 5.862s-10.42-2.142-14.14-5.862c-3.74-3.718-5.86-8.878-5.86-14.138 0-5.262 2.12-10.42 5.86-14.14 3.72-3.72 8.88-5.86 14.14-5.86s10.42 2.138 14.14 5.86c3.72 3.72 5.86 8.878 5.86 14.14 0 5.26-2.14 10.42-5.86 14.138zM371.033 357.146l-121.198 142.494c-7.156 8.416-19.778 9.434-28.192 2.276-8.414-7.156-9.432-19.778-2.276-28.192l121.198-142.494c3.956-4.652 9.582-7.042 15.244-7.042 4.582 0 9.186 1.564 12.948 4.766 8.414 7.156 9.432 19.778 2.276 28.192zM253.107 960h-176c-11.046 0-20-8.956-20-20v-101.802c0-11.046 8.954-20 20-20h176c11.046 0 20 8.956 20 20v101.802c0 11.044-8.954 20-20 20zM233.107 858.198h-136v61.802h136v-61.802zM840.421 630.39c-3.272 7.078-10.358 11.61-18.156 11.61h-117.132v268.262c0 11.044-8.954 20-20 20h-176c-11.046 0-20-8.956-20-20v-52.064h-156c-11.046 0-20-8.956-20-20v-124.13h-156c-11.046 0-20-8.956-20-20v-52.068h-117.132c-7.798 0-14.884-4.532-18.156-11.61-3.27-7.078-2.13-15.414 2.922-21.352l312.852-367.666v-285.372c0-8.072 4.854-15.354 12.304-18.46 2.486-1.036 5.1-1.54 7.692-1.54 5.174 0 10.262 2.008 14.082 5.794l167.028 165.52c3.79 3.756 5.922 8.872 5.922 14.208v119.852l98.358 115.59c7.158 8.412 6.142 21.036-2.27 28.194-8.412 7.156-21.036 6.138-28.192-2.272l-103.126-121.194c-3.078-3.618-4.768-8.21-4.768-12.96v-118.872l-127.028-125.882v244.752c0 4.75-1.69 9.344-4.768 12.96l-289.574 340.31h715.708l-83.56-98.202c-7.158-8.412-6.14-21.036 2.272-28.194 8.414-7.156 21.034-6.14 28.194 2.272l111.606 131.162c5.052 5.94 6.192 14.274 2.922 21.352zM313.133 642h-136v32.066h136v-32.066zM489.133 642h-136v32.066h136v-32.066zM489.133 766.132v-52.064h-136v104.13h136v-52.066zM665.133 642h-136v104.13h136v-104.13zM665.133 786.132h-136v104.13h136v-104.13zM670.693 441.4c-3.72 3.72-8.88 5.86-14.14 5.86s-10.42-2.138-14.14-5.86c-3.72-3.72-5.86-8.88-5.86-14.14s2.14-10.42 5.86-14.138c3.72-3.74 8.88-5.862 14.14-5.862s10.42 2.122 14.14 5.862c3.72 3.718 5.86 8.878 5.86 14.138s-2.14 10.42-5.86 14.14z" />
<glyph unicode="&#xe913;" glyph-name="certificate" d="M960.019 960h-896.011c-35.351 0-64.009-28.658-64.009-64.009v0-725.264c0-35.351 28.658-64.009 64.009-64.009v0h512.014v42.616h-512.014c-11.784 0-21.336 9.553-21.336 21.336v0 725.32c0 11.784 9.553 21.336 21.336 21.336v0h896.011c11.784 0 21.336-9.553 21.336-21.336v0-725.264c0-11.784-9.553-21.336-21.336-21.336v0h-42.673v-42.673h42.673c35.351 0 64.009 28.658 64.009 64.009v0 725.264c0 35.351-28.658 64.009-64.009 64.009v0zM896.011 746.665c-47.135 0-85.345 38.21-85.345 85.345v0c0 11.784-9.553 21.336-21.336 21.336v0h-554.658c-11.784 0-21.336-9.553-21.336-21.336v0c0-47.135-38.21-85.345-85.345-85.345v0c-11.784 0-21.336-9.553-21.336-21.336v0-383.996c0-11.784 9.553-21.336 21.336-21.336v0c47.135 0 85.345-38.21 85.345-85.345v0c0-11.784 9.553-21.336 21.336-21.336v0h277.371v42.701h-257.778c-9.46 53.658-51.188 95.366-104.082 104.685l-0.772 0.113v344.978c53.655 9.442 95.369 51.147 104.713 104.025l0.113 0.773h515.556c9.464-53.665 51.204-95.377 104.111-104.685l0.771-0.112v-172.433h42.673v191.998c-0.016 11.772-9.562 21.308-21.336 21.308 0 0 0 0 0 0v0zM746.657 511.995c-106.038 0-191.998-85.961-191.998-191.998s85.961-191.998 191.998-191.998c106.038 0 191.998 85.961 191.998 191.998v0c0 106.038-85.961 191.998-191.998 191.998v0zM746.657 170.671c-82.47 0-149.326 66.855-149.326 149.326s66.855 149.326 149.326 149.326c82.47 0 149.326-66.855 149.326-149.326v0c0-0.008 0-0.018 0-0.028 0-82.47-66.855-149.326-149.326-149.326v0zM832.002 192.007v-190.283l-71.992 57.599c-3.619 2.918-8.272 4.683-13.339 4.683s-9.72-1.766-13.38-4.715l0.041 0.032-71.908-57.571v190.255h-42.757v-234.727c0-0.002 0-0.004 0-0.006 0-11.784 9.553-21.336 21.336-21.336 5.060 0 9.708 1.761 13.366 4.704l-0.041-0.032 93.329 74.663 93.329-74.663c3.616-2.911 8.265-4.672 13.325-4.672 11.784 0 21.336 9.553 21.336 21.336 0 0.002 0 0.004 0 0.006v0 234.727zM725.32 746.665h-426.81c-11.784 0-21.336-9.553-21.336-21.336v0-85.345c0-11.784 9.553-21.336 21.336-21.336v0h426.81c11.784 0 21.336 9.553 21.336 21.336v0 85.345c0 11.784-9.553 21.336-21.336 21.336v0zM703.984 661.32h-383.996v42.673h383.996zM255.979 554.667h42.673v-42.673h-42.673v42.673zM341.324 554.667h42.673v-42.673h-42.673v42.673zM255.979 469.322h256.007v-42.673h-256.007v42.673zM746.657 426.565c-58.903 0-106.653-47.75-106.653-106.653s47.75-106.653 106.653-106.653c58.903 0 106.653 47.75 106.653 106.653v0c0 58.903-47.75 106.653-106.653 106.653v0zM746.657 255.903c-35.351 0-64.009 28.658-64.009 64.009s28.658 64.009 64.009 64.009c35.351 0 64.009-28.658 64.009-64.009v0c-0.064-35.303-28.697-63.896-64.009-63.896 0 0 0 0 0 0v0zM106.653 255.988h42.673v-42.673h-42.673v42.673zM874.674 853.347h42.673v-42.673h-42.673v42.673zM106.653 853.347h42.673v-42.673h-42.673v42.673z" />
<glyph unicode="&#xe914;" glyph-name="comment" horiz-adv-x="1248" d="M1074.589-62.159c8.945 3.784 15.107 12.487 15.107 22.628 0 0.004 0 0.007 0 0.011v-0.001 225.141c90.005 12.667 158.512 89.116 158.621 181.587v409.501c-0.060 101.13-81.966 183.11-183.062 183.291h-882.153c-101.123-0.168-183.040-82.153-183.1-183.285v-409.496c0.072-101.129 81.985-183.101 183.084-183.27h624.174l240.671-240.798c4.427-4.434 10.548-7.177 17.308-7.177 3.382 0 6.603 0.686 9.532 1.927l-0.16-0.060zM1199.42 776.709v-409.49c-0.048-74.090-60.061-134.148-134.13-134.268h-0.012c-13.52 0-24.48-10.96-24.48-24.48 0-0.007 0-0.015 0-0.022v0.001-188.834l-206.014 206.205c-4.429 4.43-10.548 7.171-17.307 7.173h-634.378c-74.085 0.12-134.102 60.175-134.162 134.262v409.454c0.060 74.093 60.078 134.148 134.151 134.268h882.148c74.071-0.132 134.072-60.185 134.12-134.263v-0.005zM407.607 571.943c-0.036 53.409-43.341 96.692-96.755 96.692-53.436 0-96.755-43.319-96.755-96.755s43.319-96.755 96.755-96.755c0.007 0 0.015 0 0.022 0h-0.001c53.416 0.096 96.686 43.396 96.734 96.814v0.005zM358.648 571.943c-0.024-26.379-21.414-47.753-47.796-47.753-26.397 0-47.796 21.399-47.796 47.796s21.399 47.796 47.796 47.796c0.007 0 0.015 0 0.022 0h-0.001c26.388-0.048 47.763-21.445 47.775-47.837v-0.001zM720.913 571.943c-0.024 53.418-43.334 96.713-96.755 96.713-53.436 0-96.755-43.319-96.755-96.755s43.319-96.755 96.755-96.755v0c53.417 0.084 96.695 43.377 96.755 96.792v0.006zM671.954 571.943c-0.036-26.37-21.421-47.732-47.796-47.732-26.397 0-47.796 21.399-47.796 47.796s21.399 47.796 47.796 47.796v0c26.405-0.036 47.796-21.45 47.796-47.859 0 0 0 0 0 0v0zM1034.219 571.943c-0.036 53.409-43.341 96.692-96.755 96.692-53.436 0-96.755-43.319-96.755-96.755s43.319-96.755 96.755-96.755v0c53.425 0.084 96.707 43.389 96.755 96.814v0.005zM985.26 571.943c-0.024-26.379-21.414-47.753-47.796-47.753-26.397 0-47.796 21.399-47.796 47.796s21.399 47.796 47.796 47.796v0c26.397-0.036 47.784-21.438 47.796-47.837v-0.001zM171.379 837.496c-13.098-0.561-23.504-11.316-23.504-24.501s10.406-23.939 23.453-24.499l0.051-0.002c13.098 0.561 23.504 11.316 23.504 24.501s-10.406 23.939-23.453 24.499l-0.051 0.002zM491.731 788.494c13.531 0 24.501 10.969 24.501 24.501s-10.969 24.501-24.501 24.501v0h-227.638c-13.531 0-24.501-10.969-24.501-24.501s10.969-24.501 24.501-24.501v0z" />
<glyph unicode="&#xe915;" glyph-name="guide" horiz-adv-x="1134" d="M484.114 610.535h-319.698c-9.392 0-17.006-7.614-17.006-17.006s7.614-17.006 17.006-17.006h319.698c9.392 0 17.006 7.614 17.006 17.006s-7.614 17.006-17.006 17.006v0zM484.114 270.124h-319.698c-9.392 0-17.006-7.614-17.006-17.006s7.614-17.006 17.006-17.006h319.698c9.392 0 17.006 7.614 17.006 17.006s-7.614 17.006-17.006 17.006v0zM484.114 187.755h-319.698c-9.392 0-17.006-7.614-17.006-17.006s7.614-17.006 17.006-17.006h319.698c9.392 0 17.006 7.614 17.006 17.006s-7.614 17.006-17.006 17.006v0zM317.172 352.494h-152.756c-9.392 0-17.006-7.614-17.006-17.006s7.614-17.006 17.006-17.006h152.756c9.392 0 17.006 7.614 17.006 17.006s-7.614 17.006-17.006 17.006v0zM259.654 524.513h-95.238c-9.392 0-17.006-7.614-17.006-17.006s7.614-17.006 17.006-17.006v0h95.238c9.392 0 17.006 7.614 17.006 17.006s-7.614 17.006-17.006 17.006v0zM219.141 438.517h-54.725c-9.392 0-17.006-7.614-17.006-17.006s7.614-17.006 17.006-17.006h54.725c9.392 0 17.006 7.614 17.006 17.006s-7.614 17.006-17.006 17.006v0zM354.865 438.517h-75.438c-9.392 0-17.006-7.614-17.006-17.006s7.614-17.006 17.006-17.006h75.438c9.392 0 17.006 7.614 17.006 17.006s-7.614 17.006-17.006 17.006v0zM486.236 438.517h-65.713c-9.392 0-17.006-7.614-17.006-17.006s7.614-17.006 17.006-17.006h65.713c9.392 0 17.006 7.614 17.006 17.006s-7.614 17.006-17.006 17.006v0zM486.263 352.494h-97.897c-9.392 0-17.006-7.614-17.006-17.006s7.614-17.006 17.006-17.006h97.87c9.392 0 17.006 7.614 17.006 17.006s-7.614 17.006-17.006 17.006v0zM484.114 524.513h-151.171c-9.392 0-17.006-7.614-17.006-17.006s7.614-17.006 17.006-17.006v0h151.171c9.392 0 17.006 7.614 17.006 17.006s-7.614 17.006-17.006 17.006v0zM670.237 568.034c0-10.282-8.335-18.618-18.618-18.618s-18.618 8.335-18.618 18.618c0 10.282 8.335 18.618 18.618 18.618s18.618-8.335 18.618-18.618zM847.199 585.040h-121.781c-9.392 0-17.006-7.614-17.006-17.006s7.614-17.006 17.006-17.006h121.781c9.392 0 17.006 7.614 17.006 17.006s-7.614 17.006-17.006 17.006v0zM670.237 489.883c0-10.282-8.335-18.618-18.618-18.618s-18.618 8.335-18.618 18.618c0 10.282 8.335 18.618 18.618 18.618s18.618-8.335 18.618-18.618zM764.239 506.889h-38.82c-9.392 0-17.006-7.614-17.006-17.006s7.614-17.006 17.006-17.006h38.794c9.392 0 17.006 7.614 17.006 17.006s-7.614 17.006-17.006 17.006v0zM670.237 259.137c0-10.282-8.335-18.618-18.618-18.618s-18.618 8.335-18.618 18.618c0 10.282 8.335 18.618 18.618 18.618s18.618-8.335 18.618-18.618zM786.322 276.169h-60.904c-9.392 0-17.006-7.614-17.006-17.006s7.614-17.006 17.006-17.006h60.877c9.392 0 17.006 7.614 17.006 17.006s-7.614 17.006-17.006 17.006v0zM670.237 182.866c0-10.282-8.335-18.618-18.618-18.618s-18.618 8.335-18.618 18.618c0 10.282 8.335 18.618 18.618 18.618s18.618-8.335 18.618-18.618zM821.623 199.872h-96.205c-9.392 0-17.006-7.614-17.006-17.006s7.614-17.006 17.006-17.006h96.205c9.392 0 17.006 7.614 17.006 17.006s-7.614 17.006-17.006 17.006v0zM886.422 276.169h-33.985c-9.392 0-17.006-7.614-17.006-17.006s7.614-17.006 17.006-17.006h33.985c9.392 0 17.006 7.614 17.006 17.006s-7.614 17.006-17.006 17.006v0zM891.339 506.889h-63.94c-9.392 0-17.006-7.614-17.006-17.006s7.614-17.006 17.006-17.006h63.94c9.392 0 17.006 7.614 17.006 17.006s-7.614 17.006-17.006 17.006v0zM670.237 411.732c0-10.282-8.335-18.618-18.618-18.618s-18.618 8.335-18.618 18.618c0 10.282 8.335 18.618 18.618 18.618s18.618-8.335 18.618-18.618zM820.844 428.738h-56.632c-9.392 0-17.006-7.614-17.006-17.006s7.614-17.006 17.006-17.006h56.632c9.392 0 17.006 7.614 17.006 17.006s-7.614 17.006-17.006 17.006v0zM670.237 337.315c0-10.282-8.335-18.618-18.618-18.618s-18.618 8.335-18.618 18.618c0 10.282 8.335 18.618 18.618 18.618s18.618-8.335 18.618-18.618zM925.162 354.32h-160.95c-9.392 0-17.006-7.614-17.006-17.006s7.614-17.006 17.006-17.006h160.95c9.392 0 17.006 7.614 17.006 17.006s-7.614 17.006-17.006 17.006v0zM979.618 428.738h-88.253c-9.392 0-17.006-7.614-17.006-17.006s7.614-17.006 17.006-17.006h88.253c9.392 0 17.006 7.614 17.006 17.006s-7.614 17.006-17.006 17.006v0zM1079.853 649.383h-21.492v12.063c-0.031 22.11-17.946 40.026-40.053 40.056h-188.061v23.668c-0.033 21.443-16.021 39.141-36.726 41.86l-0.214 0.023-14.212 1.719c-3.676 10.761-7.462 19.681-11.788 28.283l0.585-1.284 8.866 11.391c5.534 7.080 8.874 16.109 8.874 25.918 0 11.654-4.715 22.207-12.34 29.856l0.001-0.001-40.083 40.003c-7.648 7.627-18.202 12.343-29.858 12.343-9.795 0-18.813-3.331-25.982-8.921l0.094 0.071-11.445-8.892c-7.279 3.713-16.156 7.472-25.304 10.65l-1.561 0.472-1.8 14.346c-2.717 20.942-20.424 36.957-41.879 36.994h-56.421c-0.029 0-0.063 0-0.098 0-21.469 0-39.202-16-41.924-36.726l-0.023-0.214-1.8-14.319c-10.71-3.683-19.585-7.467-28.143-11.787l1.277 0.585-11.445 8.892c-7.076 5.514-16.092 8.841-25.885 8.841-11.655 0-22.209-4.712-29.862-12.335l-40.002-40.002c-7.625-7.648-12.339-18.201-12.339-29.855 0-9.809 3.34-18.838 8.944-26.011l-0.070 0.093 8.866-11.391c-3.742-7.32-7.528-16.24-10.729-25.435l-0.474-1.565-14.319-1.8c-20.886-2.75-36.852-20.398-36.94-41.793v-23.57h-194.425c-22.11-0.031-40.026-17.946-40.056-40.053v-12.066h-15.098c-30.112-0.031-54.51-24.448-54.51-54.564 0-0.028 0-0.057 0-0.085v0.004-576.235c0.031-30.093 24.417-54.479 54.507-54.51h422.111c13.894-17.203 34.981-28.116 58.618-28.128h62.115c23.639 0.012 44.726 10.925 58.509 27.985l0.112 0.143h423.882c30.093 0.031 54.479 24.417 54.51 54.507v576.238c-0.031 30.098-24.414 54.491-54.505 54.537h-0.004zM338.101 725.17v0c0.051 4.139 3.153 7.539 7.159 8.055l0.041 0.004 25.173 3.17c6.843 0.887 12.355 5.732 14.209 12.13l0.030 0.12c4.451 15.509 10.19 28.997 17.333 41.582l-0.488-0.935c1.373 2.398 2.182 5.272 2.182 8.334 0 3.966-1.358 7.615-3.634 10.508l-15.554 20.006c-1.051 1.367-1.684 3.102-1.684 4.986 0 2.244 0.899 4.278 2.357 5.762l39.975 39.975c1.482 1.457 3.516 2.356 5.761 2.356 1.883 0 3.619-0.633 5.005-1.699l-0.019 0.014 20.095-15.582c2.856-2.248 6.505-3.606 10.471-3.606 3.063 0 5.936 0.81 8.418 2.226l-0.084-0.044c11.643 6.656 25.122 12.394 39.289 16.513l1.331 0.332c6.519 1.884 11.364 7.396 12.242 14.153l0.009 0.085 3.17 25.173c0.521 4.047 3.92 7.149 8.054 7.2h56.422c4.139-0.051 7.539-3.153 8.055-7.159l0.004-0.041 3.143-25.2c0.883-6.836 5.716-12.346 12.104-14.209l0.12-0.030c15.383-4.463 28.751-10.18 41.23-17.279l-0.932 0.488c2.398-1.373 5.272-2.182 8.334-2.182 3.966 0 7.615 1.358 10.508 3.634l-0.036-0.028 20.095 15.582c1.368 1.046 3.102 1.676 4.983 1.676 2.243 0 4.278-0.896 5.764-2.349l39.974-39.974c1.457-1.482 2.356-3.516 2.356-5.761 0-1.883-0.633-3.619-1.699-5.005l0.014 0.019-15.582-20.042c-2.248-2.856-3.606-6.505-3.606-10.471 0-3.063 0.81-5.936 2.226-8.418l-0.044 0.084c6.654-11.65 12.392-25.138 16.512-39.313l0.332-1.334c1.884-6.519 7.396-11.364 14.153-12.242l0.085-0.009 25.173-3.17c4.047-0.521 7.149-3.92 7.2-8.054v-23.566h-88.736c-2.585 75.316-64.263 135.391-139.972 135.391-58.077 0-107.897-35.351-129.117-85.709l-0.344-0.921c-0.941-2.046-1.49-4.439-1.49-6.961 0-9.392 7.614-17.006 17.006-17.006 7.24 0 13.424 4.525 15.877 10.901l0.039 0.116c16.311 38.86 54.050 65.656 98.047 65.656 56.974 0 103.454-44.934 105.934-101.297l0.008-0.224c-46.527-1.129-86.821-26.764-108.581-64.446l-0.331-0.622c-22.599 39.027-64.144 64.869-111.728 64.907h-114.344v23.749zM476.968 76.398h-257.907c-9.392 0-17.006-7.614-17.006-17.006s7.614-17.006 17.006-17.006h240.821v-31.003c0.009-4.649 0.439-9.192 1.253-13.6l-0.071 0.463h-406.553c-11.315 0.015-20.483 9.184-20.498 20.497v576.102c0.015 11.315 9.184 20.483 20.497 20.498h15.099v-533.009c0.031-22.11 17.946-40.026 40.053-40.056h42.719c9.392 0 17.006 7.614 17.006 17.006s-7.614 17.006-17.006 17.006h-42.716c-3.332 0.015-6.030 2.712-6.045 6.043v579.111c0.015 3.332 2.712 6.030 6.043 6.045h342.642c52.292-0.061 94.666-42.435 94.727-94.721v-490.433c-0.015-3.332-2.712-6.030-6.043-6.045h-0.001zM638.59 11.384c-0.015-22.784-18.481-41.25-41.264-41.265h-62.087c-22.784 0.015-41.25 18.481-41.265 41.264v30.896h144.643zM1079.826-1.753h-408.353c0.743 3.945 1.173 8.488 1.182 13.129v30.903h345.757c22.122 0.015 40.053 17.937 40.083 40.053v426.168c0 9.392-7.614 17.006-17.006 17.006s-17.006-7.614-17.006-17.006v0-426.165c-0.015-3.332-2.712-6.030-6.043-6.045h-431.324c-3.332 0.015-6.030 2.712-6.045 6.043v490.428c0.061 52.292 42.435 94.666 94.721 94.727h342.62c3.332-0.015 6.030-2.712 6.045-6.043v-84.922c0-9.392 7.614-17.006 17.006-17.006s17.006 7.614 17.006 17.006v0 38.847h21.492c11.315-0.015 20.483-9.184 20.498-20.497v-576.263c-0.015-11.324-9.199-20.498-20.525-20.498-0.028 0-0.057 0-0.085 0h0.004z" />
<glyph unicode="&#xe916;" glyph-name="like" horiz-adv-x="1174" d="M1084.269 579.976h-271.519c-0.010 0-0.021 0-0.033 0-8.171 0-14.795 6.624-14.795 14.795 0 1.37 0.186 2.697 0.535 3.956l-0.025-0.104 48.372 180.501c3.132 11.29 4.933 24.255 4.933 37.639 0 67.175-45.344 123.759-107.094 140.813l-1.026 0.242c-4.941 1.371-10.616 2.159-16.474 2.159-29.4 0-54.164-19.85-61.621-46.878l-0.106-0.449-34.089-126.641c-15.668-57.546-44.779-106.996-83.83-146.623l0.039 0.040c-32.804-32.279-67.816-62.611-104.675-90.638l-2.671-1.948c-10.227-8.079-18.613-14.488-24.305-19.431l-9.579-8.318c-5.164-4.49-11.957-7.227-19.389-7.227-0.003 0-0.005 0-0.008 0h-98.483v69.201c0 14.478-11.737 26.214-26.214 26.214h-235.998c-14.478 0-26.214-11.737-26.214-26.214v0-618.818c0-14.478 11.737-26.214 26.214-26.214h235.998c14.478 0 26.214 11.737 26.214 26.214v0 69.235h98.654c0.002 0 0.005 0 0.007 0 7.432 0 14.225-2.737 19.425-7.258l-0.036 0.031c43.499-37.86 100.731-60.943 163.353-60.951h435.796c49.303 0.058 89.255 40.010 89.313 89.308v14.869c0 0.039 0 0.084 0 0.13 0 18.839-5.867 36.308-15.873 50.68l0.192-0.291c25.325 16.052 41.892 43.93 41.895 75.677v0 14.863c0 0.039 0 0.084 0 0.13 0 18.839-5.867 36.308-15.873 50.68l0.192-0.291c25.325 16.052 41.892 43.93 41.895 75.677v0 14.863c0 0.036 0 0.078 0 0.12 0 18.843-5.866 36.315-15.873 50.691l0.192-0.291c25.325 16.052 41.892 43.93 41.895 75.677v0 14.863c-0.058 49.303-40.010 89.255-89.308 89.313h-0.006zM235.998-11.537h-183.569v566.389h183.569v-566.389zM1121.12 475.936c-0.039-20.348-16.533-36.831-36.882-36.85h-70.634c-14.478 0-26.214-11.737-26.214-26.214s11.737-26.214 26.214-26.214h44.316c20.336-0.039 36.812-16.514 36.85-36.847v-14.867c-0.039-20.348-16.533-36.831-36.882-36.85h-75.748c-14.478 0-26.214-11.737-26.214-26.214s11.737-26.214 26.214-26.214h49.668c20.351-0.019 36.846-16.502 36.884-36.846v-14.867c-0.039-20.348-16.533-36.831-36.882-36.85h-77.316c-14.478 0-26.214-11.737-26.214-26.214s11.737-26.214 26.214-26.214h51.134c20.351-0.019 36.846-16.502 36.884-36.846v-14.867c0.001-0.081 0.001-0.177 0.001-0.273 0-20.378-16.51-36.9-36.883-36.918h-435.796c-49.451 0.009-94.644 18.237-129.231 48.337l0.238-0.203c-14.314 12.453-33.145 20.044-53.749 20.044-0.003 0-0.007 0-0.010 0h-98.653v375.422h98.62c0.003 0 0.006 0 0.009 0 20.604 0 39.435 7.591 53.849 20.129l-0.1-0.085 9.579 8.318c4.67 4.057 12.783 10.227 22.158 17.658 41.425 31.41 78.117 63.216 112.634 97.223l-0.14-0.138c45.256 45.907 79.022 103.259 96.561 167.317l0.627 2.685 34.089 126.641c1.348 4.914 5.775 8.465 11.031 8.465 1.047 0 2.062-0.141 3.026-0.405l-0.080 0.019c40.213-11.082 69.258-47.329 69.258-90.36 0-8.574-1.153-16.879-3.313-24.768l0.153 0.656-48.372-180.501c-1.473-5.244-2.32-11.265-2.32-17.484 0-5.222 0.597-10.304 1.726-15.182l-0.088 0.452h-30.68c-14.478 0-26.214-11.737-26.214-26.214s11.737-26.214 26.214-26.214h367.82c20.336-0.039 36.812-16.514 36.85-36.847v-0.004zM164.070 32.37c14.478 0 26.214 11.737 26.214 26.214v0 26.214c0 14.478-11.737 26.214-26.214 26.214s-26.214-11.737-26.214-26.214v-26.214c0-14.478 11.737-26.214 26.214-26.214v0zM462.315 424.802c-14.478 0-26.214-11.737-26.214-26.214v0-124.834c0-14.478 11.737-26.214 26.214-26.214s26.214 11.737 26.214 26.214v0 124.8c0 0.010 0 0.022 0 0.034 0 14.478-11.737 26.214-26.214 26.214 0 0 0 0 0 0v0zM462.315 199.031c-14.478 0-26.214-11.737-26.214-26.214v0-25.942c0-14.478 11.737-26.214 26.214-26.214s26.214 11.737 26.214 26.214v0 25.942c0 14.478-11.737 26.214-26.214 26.214v0z" />
<glyph unicode="&#xe917;" glyph-name="label" d="M471.401 960.037l-47.237-87.982-78.637 61.501-23.902-96.925-91.438 39.995 1.006-99.832-98.644 16.002 25.822-96.467-99.503-8.998 49.011-87.013-94.163-33.466 69.146-72.053-82.788-55.777 85.038-52.65-66.366-74.614 95.26-29.937-45.719-88.768 99.759-5.285-22.165-97.327 97.93 19.678 2.743-99.796 90.012 43.397 27.432-95.974 76.333 64.391 50.547-86.208 57.826 81.362 70.371-70.865 35.862 93.267 85.787-51.205 11.54 99.192 95.864-28.218-13.533 98.9 99.869-3.53-37.929 92.554 97.583 21.397-59.508 80.191 89.189 45.006-77.613 62.855 75.181 65.726-90.835 41.604 56.509 82.295-98.187 17.721 34.216 93.797-99.65-7.315 9.784 99.339-94.73-31.784-15.252 98.753-83.904-54.369-39.282 91.749-67.664-73.443zM530.727 815.345l12.472-2.999 14.356-18.727-5.486-22.969-21.287-10.15-12.509 2.999-14.356 18.745 5.486 22.969zM422.043 804.884l12.472-2.999 14.356-18.745-5.486-22.933-21.287-10.186-12.509 3.036-14.356 18.745 5.486 22.933zM637.307 791.735l12.509-3.036 14.356-18.708-5.486-22.969-21.323-10.15-12.472 2.999-14.356 18.745 5.486 22.933zM321.936 761.122l12.509-3.036 14.356-18.745-5.486-22.933-21.323-10.15-12.472 2.999-14.356 18.745 5.486 22.933zM731.214 735.83l12.509-2.999 14.319-18.745-5.486-22.933-21.287-10.186-12.49 2.926-14.319 18.745 5.486 22.969zM240.593 688.282l12.509-3.036 14.319-18.745-5.486-22.933-21.287-10.15-12.509 2.999-14.356 18.745 5.486 22.933zM802.719 653.279l12.472-2.999 14.356-18.745-5.486-22.933-21.287-10.186-12.509 3.036-14.356 18.727 5.486 22.969zM186.333 593.478l12.509-3.036 14.356-18.745-5.486-22.933-21.323-10.15-12.582 2.981-14.319 18.745 5.486 22.933zM844.964 552.569l12.509-2.999 14.356-18.745-5.486-22.933-21.323-10.186-12.472 2.999-14.356 18.745 5.486 22.969zM164.662 486.386l12.509-2.999 14.356-18.745-5.486-22.933-21.378-10.186-12.509 3.036-14.319 18.745 5.486 22.933zM854.839 472.14l12.509-2.999 14.356-18.745-5.486-22.933-21.323-10.186-12.472 2.999-14.356 18.745 5.486 22.969zM177.299 378.013l12.509-2.999 14.319-18.745-5.486-22.969-21.287-10.15-12.509 2.999-14.356 18.745 5.486 22.969zM837.228 364.37l12.509-2.999 14.319-18.745-5.486-22.969-21.323-10.15-12.509 2.999-14.319 18.745 5.486 22.969zM223.457 279.004l12.509-2.999 14.319-18.745-5.486-22.933-21.287-10.186-12.509 2.999-14.319 18.745 5.486 22.969zM786.717 267.574l12.509-2.999 14.356-18.745-5.486-22.933-21.323-10.186-12.472 3.036-14.356 18.745 5.486 22.933zM298.711 199.818l12.509-2.999 14.374-18.763-5.486-22.933-21.323-10.186-12.509 3.036-14.319 18.708 5.486 22.969zM708.501 191.314l12.509-3.036 14.319-18.745-5.486-22.933-21.287-10.15-12.509 2.999-14.356 18.745 5.486 22.933zM394.721 147.844l12.509-3.036 14.356-18.727-5.486-22.969-21.323-10.15-12.472 2.999-14.356 18.745 5.486 22.933zM610.516 143.090l12.509-2.999 14.319-18.745-5.486-22.969-21.323-10.15-12.509 2.999-14.319 18.745 5.486 22.969zM502.253 128.459l12.509-2.999 14.319-18.745-5.486-22.933-21.323-10.186-12.509 3.036-14.319 18.745 5.486 22.933z" />
<glyph unicode="&#xe918;" glyph-name="quotes-left" horiz-adv-x="1000" d="M1000 891.38l-67.37 68.62-532.806-512 532.806-512 67.37 68.62-461.285 443.38zM599.883 891.38l-67.42 68.62-532.706-512 532.706-512 67.42 68.62-461.335 443.38z" />
<glyph unicode="&#xe919;" glyph-name="quotes-right" horiz-adv-x="1000" d="M0 891.38l67.37 68.62 532.806-512-532.806-512-67.37 68.62 461.285 443.38zM400.117 891.38l67.42 68.62 532.706-512-532.706-512-67.42 68.62 461.335 443.38z" />
<glyph unicode="&#xe91a;" glyph-name="new" d="M934.75 348.965l89.433 44.076-77.728 62.914 75.168 65.657-91.445 41.516 57.427 83.215-98.395 18.289 34.2 93.822-99.675-7.316 9.51 99.126-94.737-32.006-15.363 98.578-83.032-54.318-39.321 91.445-67.669-73.156-61.634 79.191-47.368-87.97-78.643 61.451-23.776-96.932-91.445 40.053 0.914-99.492-98.578 15.729 25.787-96.566-99.492-8.962 49.014-87.056-94.188-33.469 69.132-72.059-82.849-55.781 85.044-52.672-66.755-74.619 95.286-29.811-45.722-88.884 99.858-5.304-21.398-97.297 97.846 19.752 2.743-99.858 89.982 43.345 27.433-96.017 76.448 64.56 50.112-86.324 57.793 81.386 70.23-70.778 36.578 93.274 85.775-51.209 11.522 99.126 95.834-28.165-13.534 98.943 99.858-3.658-38.773 91.994 97.48 21.398zM831.417 572.274c2.434 0.782 5.234 1.233 8.139 1.233 15.175 0 27.478-12.302 27.478-27.478 0-12.27-8.043-22.662-19.144-26.191l-0.195-0.053c-2.467-0.692-5.301-1.092-8.227-1.097h-0.003c-15.051 0.132-27.201 12.363-27.201 27.432 0 12.194 7.956 22.53 18.96 26.1l0.194 0.054zM775.087 666.279c4.614 3.646 10.516 5.849 16.932 5.849 15.151 0 27.433-12.282 27.433-27.433 0-9.617-4.948-18.078-12.438-22.976l-0.105-0.064c-4.49-3.384-10.163-5.42-16.311-5.42-9.283 0-17.483 4.642-22.403 11.732l-0.059 0.090c-3.066 4.367-4.9 9.793-4.9 15.647 0 9.324 4.651 17.561 11.76 22.518l0.089 0.059zM692.238 737.972c5.052 6.799 13.058 11.156 22.083 11.156 15.151 0 27.433-12.282 27.433-27.433 0-15.135-12.256-27.407-27.384-27.433h-0.003c-6.115 0.052-11.757 2.032-16.36 5.361l0.083-0.057c-6.829 5.050-11.209 13.074-11.209 22.122 0 6.13 2.011 11.791 5.409 16.358l-0.052-0.073zM591.1 780.219c3.656 11.029 13.876 18.844 25.922 18.844 15.050 0 27.251-12.201 27.251-27.251s-12.201-27.251-27.251-27.251c-2.72 0-5.347 0.398-7.825 1.14l0.193-0.050c-11.413 3.494-19.57 13.935-19.57 26.282 0 2.959 0.468 5.808 1.335 8.478l-0.054-0.194zM509.348 816.797v0c15.151 0 27.433-12.282 27.433-27.433s-12.282-27.433-27.433-27.433c-15.151 0-27.433 12.282-27.433 27.433v0c0.308 14.913 12.47 26.885 27.428 26.885 0.002 0 0.004 0 0.006 0v0zM312.376 760.284c4.046 2.484 8.947 3.955 14.19 3.955 15.151 0 27.433-12.282 27.433-27.433 0-9.694-5.028-18.214-12.618-23.093l-0.109-0.066c-4.133-2.571-9.15-4.095-14.523-4.095-9.737 0-18.305 5.006-23.27 12.585l-0.065 0.106c-2.642 4.141-4.211 9.19-4.211 14.605 0 9.878 5.221 18.537 13.054 23.368l0.118 0.068zM162.589 581.784c4.149 10.227 14.004 17.308 25.513 17.308 15.165 0 27.458-12.293 27.458-27.458 0-3.656-0.714-7.144-2.011-10.334l0.066 0.184c-4.27-10.149-14.114-17.153-25.6-17.192h-0.005c-0.087-0.001-0.19-0.002-0.293-0.002-3.53 0-6.887 0.741-9.924 2.076l0.158-0.062c-10.219 4.084-17.307 13.9-17.307 25.372 0 3.641 0.714 7.116 2.010 10.291l-0.066-0.182zM136.984 466.198c0.606 14.671 12.647 26.335 27.411 26.335 15.151 0 27.433-12.282 27.433-27.433 0-15.079-12.166-27.317-27.218-27.433h-1.84c-14.452 0.979-25.805 12.942-25.805 27.557 0 0.343 0.006 0.684 0.019 1.023l-0.001-0.049zM175.208 329.030c-0.038 0-0.083 0-0.128 0-12.544 0-23.096 8.534-26.166 20.112l-0.043 0.189c-0.577 2.101-0.909 4.514-0.909 7.004 0 15.151 12.282 27.433 27.433 27.433s27.433-12.282 27.433-27.433c0-12.483-8.337-23.018-19.746-26.342l-0.194-0.048c-1.988-0.595-4.272-0.937-6.636-0.937-0.368 0-0.734 0.008-1.097 0.025l0.052-0.002zM234.831 233.745c-4.229-3.216-9.555-5.192-15.337-5.303h-0.026c-0.067-0.001-0.145-0.001-0.224-0.001-15.252 0-27.616 12.364-27.616 27.616s12.364 27.616 27.616 27.616c15.252 0 27.616-12.364 27.616-27.616 0-9.584-4.882-18.028-12.295-22.98l-0.1-0.063zM244.158 638.114c-0.276-0.010-0.599-0.016-0.925-0.016-6.647 0-12.726 2.429-17.4 6.447l0.035-0.030c-6.047 5.001-9.87 12.505-9.87 20.902 0 6.777 2.491 12.973 6.607 17.721l-0.029-0.034c5.070 6.013 12.608 9.807 21.032 9.807 15.164 0 27.456-12.293 27.456-27.456 0-6.74-2.428-12.912-6.458-17.69l0.034 0.041c-4.956-5.857-12.274-9.582-20.465-9.693h-0.019zM314.936 158.76c-5.070-6.28-12.768-10.263-21.396-10.263-6.534 0-12.534 2.284-17.246 6.097l0.052-0.040c-6.318 5.070-10.329 12.79-10.329 21.448 0 15.151 12.282 27.433 27.433 27.433s27.433-12.282 27.433-27.433c0-6.473-2.242-12.422-5.991-17.113l0.042 0.055zM414.245 112.489c-3.871-10.722-13.945-18.255-25.783-18.289h-0.004c-3.412 0.013-6.68 0.615-9.712 1.71l0.201-0.064c-10.505 4.005-17.833 13.996-17.833 25.699 0 15.151 12.282 27.433 27.433 27.433s27.433-12.282 27.433-27.433c0-3.45-0.637-6.751-1.799-9.793l0.063 0.188zM426.133 498.386l-16.277-3.109v-131.132h-30.543l-61.634 102.053v-80.472l16.277-3.292v-18.289h-63.829v18.289l16.277 3.292v109.734l-16.277 3.109v18.289h47.003l61.634-102.784v81.203l-16.277 3.109v18.289h63.646zM427.596 751.689c-0.033 0-0.073 0-0.113 0-15.151 0-27.433 12.282-27.433 27.433s12.282 27.433 27.433 27.433c12.813 0 23.575-8.784 26.591-20.659l0.041-0.19c0.42-1.817 0.661-3.904 0.661-6.047 0-15.172-12.075-27.524-27.139-27.97l-0.041-0.001zM495.631 73.35h-0.914c-14.751 0.509-26.517 12.589-26.517 27.418 0 15.151 12.282 27.433 27.433 27.433s27.433-12.282 27.433-27.433c0-0.123-0.001-0.246-0.002-0.369v0.019c-0.103-14.971-12.264-27.068-27.25-27.068-0.065 0-0.129 0-0.193 0.001h0.010zM556.899 364.145h-120.89v18.289l16.277 3.292v109.734l-16.277 3.109v18.289h120.707v-41.882h-23.593l-1.28 18.289h-48.832v-38.407h51.575v-23.593h-51.575v-43.528h49.197l1.28 18.289h23.41zM611.766 87.25v0c-2.413-0.769-5.188-1.213-8.067-1.213-15.151 0-27.433 12.282-27.433 27.433s12.282 27.433 27.433 27.433c12.438 0 22.943-8.278 26.306-19.625l0.049-0.194c0.658-2.245 1.036-4.825 1.036-7.492 0-12.291-8.030-22.707-19.129-26.288l-0.195-0.055zM718.574 136.996c-4.302-2.865-9.589-4.572-15.275-4.572-0.031 0-0.062 0-0.093 0h0.005c-14.941 0.142-26.999 12.288-26.999 27.249 0 15.050 12.201 27.251 27.251 27.251s27.251-12.201 27.251-27.251c0-9.418-4.778-17.721-12.043-22.616l-0.097-0.062zM727.536 364.145h-28.531l-27.982 100.772-27.982-100.772h-29.079l-31.091 132.595-12.437 1.646v18.289h56.147v-18.289l-13.9-2.378 18.289-83.764 28.531 104.613h22.678l28.531-105.527 18.289 83.764-13.9 2.378v18.289h55.964v-18.289l-12.437-1.646zM804.532 217.833c-5.068-6.421-12.851-10.506-21.588-10.506-15.151 0-27.433 12.282-27.433 27.433s12.282 27.433 27.433 27.433c6.372 0 12.236-2.172 16.893-5.817l-0.060 0.045c6.554-5.1 10.729-12.988 10.729-21.851 0-6.404-2.18-12.298-5.837-16.982l0.046 0.061zM861.045 321.532v0c-3.819-10.739-13.895-18.289-25.735-18.289-0.018 0-0.037 0-0.055 0h0.003c-3.286 0.015-6.427 0.617-9.33 1.707l0.185-0.061c-10.8 3.851-18.391 13.989-18.391 25.9 0 15.151 12.282 27.433 27.433 27.433s27.433-12.282 27.433-27.433c0-3.252-0.566-6.371-1.604-9.266l0.060 0.191zM854.644 410.599v0c-14.911 0.311-26.879 12.472-26.879 27.428 0 15.151 12.282 27.433 27.433 27.433s27.433-12.282 27.433-27.433c0-0.191-0.002-0.381-0.006-0.571v0.028c-0.098-14.975-12.261-27.078-27.25-27.078-0.257 0-0.514 0.004-0.77 0.011l0.038-0.001z" />
<glyph unicode="&#xe91b;" glyph-name="top" d="M934.75 348.965l89.433 44.076-77.728 62.914 75.168 65.657-91.445 41.516 57.427 83.215-98.395 18.289 34.2 93.822-99.675-7.316 9.51 99.126-94.737-32.006-15.363 98.578-83.032-54.318-39.321 91.445-67.669-73.156-61.634 79.191-47.368-87.97-78.643 61.451-23.776-96.932-91.445 40.053 0.914-99.492-98.578 15.729 25.787-96.566-99.492-8.962 49.014-87.056-94.188-33.469 69.132-72.059-82.849-55.781 85.044-52.672-66.755-74.619 95.286-29.811-45.722-88.884 99.858-5.304-21.398-97.297 97.846 19.752 2.743-99.858 89.982 43.345 27.433-96.017 76.448 64.56 50.112-86.324 57.793 81.386 70.23-70.778 36.578 93.274 85.775-51.209 11.522 99.126 95.834-28.165-13.534 98.943 99.858-3.658-38.773 91.994 97.48 21.398zM692.238 737.972c5.052 6.799 13.058 11.156 22.083 11.156 15.151 0 27.433-12.282 27.433-27.433 0-15.135-12.256-27.407-27.384-27.433h-0.003c-6.115 0.052-11.757 2.032-16.36 5.361l0.083-0.057c-6.829 5.050-11.209 13.074-11.209 22.122 0 6.13 2.011 11.791 5.409 16.358l-0.052-0.073zM591.1 780.219c3.656 11.029 13.876 18.844 25.922 18.844 15.050 0 27.251-12.201 27.251-27.251s-12.201-27.251-27.251-27.251c-2.72 0-5.347 0.398-7.825 1.14l0.193-0.050c-11.413 3.494-19.57 13.935-19.57 26.282 0 2.959 0.468 5.808 1.335 8.478l-0.054-0.194zM509.348 816.797v0c15.151 0 27.433-12.282 27.433-27.433s-12.282-27.433-27.433-27.433c-15.151 0-27.433 12.282-27.433 27.433v0c0.308 14.913 12.47 26.885 27.428 26.885 0.002 0 0.004 0 0.006 0v0zM312.376 760.284c4.046 2.484 8.947 3.955 14.19 3.955 15.151 0 27.433-12.282 27.433-27.433 0-9.694-5.028-18.214-12.618-23.093l-0.109-0.066c-4.133-2.571-9.15-4.095-14.523-4.095-9.737 0-18.305 5.006-23.27 12.585l-0.065 0.106c-2.642 4.141-4.211 9.19-4.211 14.605 0 9.878 5.221 18.537 13.054 23.368l0.118 0.068zM162.589 581.784c4.149 10.227 14.004 17.308 25.513 17.308 15.165 0 27.458-12.293 27.458-27.458 0-3.656-0.714-7.144-2.011-10.334l0.066 0.184c-4.27-10.149-14.114-17.153-25.6-17.192h-0.005c-0.087-0.001-0.19-0.002-0.293-0.002-3.53 0-6.887 0.741-9.924 2.076l0.158-0.062c-10.219 4.084-17.307 13.9-17.307 25.372 0 3.641 0.714 7.116 2.010 10.291l-0.066-0.182zM136.984 466.198c0.606 14.671 12.647 26.335 27.411 26.335 15.151 0 27.433-12.282 27.433-27.433 0-15.079-12.166-27.317-27.218-27.433h-1.84c-14.452 0.979-25.805 12.942-25.805 27.557 0 0.343 0.006 0.684 0.019 1.023l-0.001-0.049zM175.208 329.030c-0.038 0-0.083 0-0.128 0-12.544 0-23.096 8.534-26.166 20.112l-0.043 0.189c-0.577 2.101-0.909 4.514-0.909 7.004 0 15.151 12.282 27.433 27.433 27.433s27.433-12.282 27.433-27.433c0-12.483-8.337-23.018-19.746-26.342l-0.194-0.048c-1.988-0.595-4.272-0.937-6.636-0.937-0.368 0-0.734 0.008-1.097 0.025l0.052-0.002zM234.831 233.745c-4.229-3.216-9.555-5.192-15.337-5.303h-0.026c-0.067-0.001-0.145-0.001-0.224-0.001-15.252 0-27.616 12.364-27.616 27.616s12.364 27.616 27.616 27.616c15.252 0 27.616-12.364 27.616-27.616 0-9.584-4.882-18.028-12.295-22.98l-0.1-0.063zM244.158 638.114c-0.276-0.010-0.599-0.016-0.925-0.016-6.647 0-12.726 2.429-17.4 6.447l0.035-0.030c-6.047 5.001-9.87 12.505-9.87 20.902 0 6.777 2.491 12.973 6.607 17.721l-0.029-0.034c5.070 6.013 12.608 9.807 21.032 9.807 15.164 0 27.456-12.293 27.456-27.456 0-6.74-2.428-12.912-6.458-17.69l0.034 0.041c-4.956-5.857-12.274-9.582-20.465-9.693h-0.019zM314.936 158.76c-5.070-6.28-12.768-10.263-21.396-10.263-6.534 0-12.534 2.284-17.246 6.097l0.052-0.040c-6.318 5.070-10.329 12.79-10.329 21.448 0 15.151 12.282 27.433 27.433 27.433s27.433-12.282 27.433-27.433c0-6.473-2.242-12.422-5.991-17.113l0.042 0.055zM414.245 112.489c-3.871-10.722-13.945-18.255-25.783-18.289h-0.004c-3.412 0.013-6.68 0.615-9.712 1.71l0.201-0.064c-10.505 4.005-17.833 13.996-17.833 25.699 0 15.151 12.282 27.433 27.433 27.433s27.433-12.282 27.433-27.433c0-3.45-0.637-6.751-1.799-9.793l0.063 0.188zM435.095 478.268h-25.056l-1.463 18.289h-30.177v-115.403l18.289-3.292v-19.752h-68.584v20.484l18.289 3.292v115.403h-30.725l-1.463-18.289h-25.056v43.528h146.312zM433.997 752.603c-1.906-0.532-4.103-0.862-6.37-0.914l-0.031-0.001c-0.033 0-0.073 0-0.113 0-15.151 0-27.433 12.282-27.433 27.433s12.282 27.433 27.433 27.433c12.813 0 23.575-8.784 26.591-20.659l0.041-0.19c0.54-2.020 0.85-4.34 0.85-6.732 0-12.786-8.865-23.501-20.784-26.335l-0.184-0.037zM495.631 73.35h-0.914c-14.751 0.509-26.517 12.589-26.517 27.418 0 15.151 12.282 27.433 27.433 27.433s27.433-12.282 27.433-27.433c0-0.123-0.001-0.246-0.002-0.369v0.019c-0.103-14.971-12.264-27.068-27.25-27.068-0.065 0-0.129 0-0.193 0.001h0.010zM517.944 356.464c-0.708-0.027-1.539-0.042-2.374-0.042-20.463 0-38.793 9.132-51.137 23.543l-0.076 0.091c-12.774 15.122-20.538 34.835-20.538 56.361 0 1.082 0.020 2.16 0.059 3.233l-0.004-0.155v2.378c-0.039 0.975-0.061 2.12-0.061 3.27 0 21.466 7.769 41.117 20.649 56.295l-0.104-0.125c12.356 14.499 30.633 23.634 51.044 23.634 0.83 0 1.656-0.015 2.479-0.045l-0.119 0.003c0.981 0.051 2.13 0.079 3.285 0.079 20.584 0 39.033-9.141 51.509-23.585l0.073-0.087c12.882-15.085 20.72-34.815 20.72-56.377 0-1.077-0.020-2.149-0.058-3.217l0.004 0.154v-2.378c0.042-1.013 0.067-2.203 0.067-3.397 0-21.425-7.773-41.035-20.652-56.164l0.102 0.122c-12.644-14.529-31.167-23.66-51.823-23.66-1.071 0-2.136 0.025-3.194 0.073l0.15-0.005zM611.583 87.25v0c-2.413-0.769-5.188-1.213-8.067-1.213-15.151 0-27.433 12.282-27.433 27.433s12.282 27.433 27.433 27.433c12.438 0 22.943-8.278 26.306-19.625l0.049-0.194c0.667-2.261 1.051-4.859 1.051-7.546 0-12.229-7.949-22.602-18.962-26.233l-0.195-0.056zM718.574 136.996c-4.302-2.865-9.589-4.572-15.275-4.572-0.031 0-0.062 0-0.093 0h0.005c-14.941 0.142-26.999 12.288-26.999 27.249 0 15.050 12.201 27.251 27.251 27.251s27.251-12.201 27.251-27.251c0-9.418-4.778-17.721-12.043-22.616l-0.097-0.062zM727.901 432.546c-11.080-8.948-25.337-14.364-40.858-14.364-1.261 0-2.513 0.036-3.757 0.106l0.172-0.008h-27.616v-36.578l18.289-3.292v-19.752h-68.584v19.935l18.289 3.292v117.598l-18.289 3.292v19.752h77.911c1.098 0.067 2.382 0.105 3.675 0.105 15.522 0 29.761-5.493 40.879-14.642l-0.111 0.089c10.036-9.491 16.282-22.899 16.282-37.767s-6.246-28.276-16.258-37.744l-0.024-0.023zM831.417 572.274c2.434 0.782 5.234 1.233 8.139 1.233 15.175 0 27.478-12.302 27.478-27.478 0-12.27-8.043-22.662-19.144-26.191l-0.195-0.053c-2.467-0.692-5.301-1.092-8.227-1.097h-0.003c-15.051 0.132-27.201 12.363-27.201 27.432 0 12.194 7.956 22.53 18.96 26.1l0.194 0.054zM775.087 666.279c4.614 3.646 10.516 5.849 16.932 5.849 15.151 0 27.433-12.282 27.433-27.433 0-9.617-4.948-18.078-12.438-22.976l-0.105-0.064c-4.49-3.384-10.163-5.42-16.311-5.42-9.283 0-17.483 4.642-22.403 11.732l-0.059 0.090c-3.066 4.367-4.9 9.793-4.9 15.647 0 9.324 4.651 17.561 11.76 22.518l0.089 0.059zM804.715 217.65c-5.068-6.421-12.851-10.506-21.588-10.506-15.151 0-27.433 12.282-27.433 27.433s12.282 27.433 27.433 27.433c6.372 0 12.236-2.172 16.893-5.817l-0.060 0.045c6.436-5.102 10.527-12.92 10.527-21.694 0-6.392-2.172-12.278-5.818-16.958l0.046 0.062zM861.228 321.349v0c-3.819-10.739-13.895-18.289-25.735-18.289-0.018 0-0.037 0-0.055 0h0.003c-3.286 0.015-6.427 0.617-9.33 1.707l0.185-0.061c-10.8 3.851-18.391 13.989-18.391 25.9 0 15.151 12.282 27.433 27.433 27.433s27.433-12.282 27.433-27.433c0-3.252-0.566-6.371-1.604-9.266l0.060 0.191zM854.827 410.416v0c-14.911 0.311-26.879 12.472-26.879 27.428 0 15.151 12.282 27.433 27.433 27.433s27.433-12.282 27.433-27.433c0-0.191-0.002-0.381-0.006-0.571v0.028c-0.198-14.899-12.321-26.9-27.248-26.9-0.322 0-0.643 0.006-0.963 0.017l0.046-0.001zM517.761 499.301c-0.57 0.034-1.237 0.053-1.908 0.053-12.050 0-22.644-6.232-28.736-15.648l-0.081-0.134c-6.497-10.711-10.342-23.656-10.342-37.5 0-1.348 0.036-2.688 0.109-4.019l-0.008 0.185v-2.743c-0.047-0.999-0.073-2.171-0.073-3.349 0-14.125 3.831-27.355 10.51-38.709l-0.195 0.358c6.296-9.555 16.977-15.775 29.112-15.775 0.632 0 1.26 0.017 1.884 0.050l-0.087-0.004c0.426-0.019 0.926-0.029 1.428-0.029 12.185 0 22.92 6.206 29.217 15.63l0.080 0.128c6.599 10.94 10.503 24.151 10.503 38.273 0 1.205-0.028 2.403-0.085 3.594l0.006-0.168v2.743c0.061 1.109 0.096 2.406 0.096 3.711 0 13.846-3.915 26.777-10.698 37.747l0.178-0.309c-6.321 9.657-17.087 15.947-29.323 15.947-0.558 0-1.112-0.013-1.664-0.039l0.078 0.003zM683.459 497.289h-27.616v-53.77h27.616c0.557-0.040 1.208-0.063 1.864-0.063 7.36 0 14.048 2.879 18.998 7.573l-0.012-0.012c4.312 4.775 6.95 11.134 6.95 18.11 0 0.063 0 0.126-0.001 0.189v-0.010c0.009 0.266 0.014 0.578 0.014 0.891 0 7.16-2.637 13.703-6.993 18.713l0.030-0.035c-4.943 5.203-11.913 8.44-19.638 8.44-0.426 0-0.85-0.010-1.271-0.029l0.060 0.002z" />
<glyph unicode="&#xe91c;" glyph-name="iv" d="M0 617.721h336.195v94.544h-0.569v153.193h0.569v94.544h-336.195v-342.281zM242.902 712.265h-150.178v153.193h150.178v-153.193zM923.256 960.003h-437.451v-486.089h-485.804v-537.912h1023.943v1024h-100.688zM100.688 36.861v336.138h385.116v-336.138h-385.116zM923.256 36.861h-336.195v336.138h336.195v-336.138zM587.061 473.914v385.287h336.195v-385.287h-336.195z" />
<glyph unicode="&#xe91d;" glyph-name="call" d="M322.593 253.994c-3.585 3.592-8.542 5.815-14.018 5.815-0.069 0-0.138 0-0.207-0.001h0.011c-5.531-0.043-10.537-2.252-14.22-5.819l0.006 0.005c-3.592-3.585-5.815-8.542-5.815-14.018 0-0.069 0-0.138 0.001-0.207v0.011c0.081-5.524 2.281-10.519 5.821-14.223l-0.008 0.008c3.585-3.592 8.542-5.815 14.018-5.815 0.069 0 0.138 0 0.207 0.001h-0.011c5.531 0.043 10.537 2.252 14.22 5.819l-0.006-0.005c3.592 3.585 5.815 8.542 5.815 14.018 0 0.069 0 0.138-0.001 0.207v-0.011c-0.040 5.531-2.249 10.539-5.819 14.22l0.005-0.005zM990.236 231.793l-144.606 144.606c-20.68 20.753-49.288 33.594-80.896 33.594-31.512 0-60.043-12.764-80.705-33.404l0.001 0.001-50.278-50.598-20.188-19.996-243.981 243.981 70.594 70.594c20.673 20.681 33.459 49.248 33.459 80.8s-12.786 60.119-33.459 80.801l-144.382 144.382c-20.681 20.673-49.248 33.459-80.8 33.459s-60.119-12.786-80.801-33.459l-38.331-38.331c-59.326-59.504-96.009-141.613-96.009-232.29s36.682-172.786 96.017-232.298l140.542-140.542c3.609-3.609 8.595-5.842 14.103-5.842 11.015 0 19.944 8.929 19.944 19.944 0 5.508-2.232 10.494-5.842 14.103l-140.55 140.55c-52.087 52.309-84.289 124.456-84.289 204.123 0 66.522 22.452 127.8 60.19 176.671l-0.498-0.671 151.921-151.794c3.561-3.592 8.497-5.815 13.952-5.815 0.092 0 0.184 0.001 0.276 0.002h-0.014c5.534 0.022 10.547 2.236 14.219 5.818l-0.004-0.004c3.62 3.604 5.86 8.592 5.86 14.103s-2.24 10.499-5.859 14.102l-153.615 153.583 36.192 36.192c13.435 13.438 31.996 21.749 52.498 21.749s39.064-8.311 52.498-21.749l144.383-144.383c13.438-13.435 21.749-31.996 21.749-52.498s-8.311-39.064-21.749-52.498v0l-84.585-84.809c-3.592-3.585-5.815-8.542-5.815-14.018 0-0.069 0-0.138 0.001-0.207v0.011c0.043-5.531 2.252-10.537 5.819-14.22l-0.005 0.006 272.187-272.187c3.604-3.62 8.592-5.86 14.103-5.86s10.499 2.24 14.102 5.859l20.189 20.189 247.974-247.974c-48.126-37.185-109.31-59.603-175.731-59.603-79.66 0-151.788 32.245-204.045 84.395l-142.589 142.589c-3.609 3.609-8.595 5.842-14.103 5.842-11.015 0-19.944-8.929-19.944-19.944 0-5.508 2.232-10.494 5.842-14.103l142.594-142.53c59.415-59.429 141.504-96.187 232.178-96.187s172.763 36.758 232.178 96.187l38.333 38.333c20.629 20.659 33.387 49.184 33.387 80.688s-12.757 60.029-33.388 80.69l0.001-0.001zM961.839 98.59l-36.192-36.192-249.571 249.571 36.255 36.223c13.458 13.464 32.054 21.792 52.594 21.792s39.136-8.328 52.594-21.792l144.607-144.607c13.466-13.386 21.8-31.922 21.8-52.404 0-20.577-8.412-39.189-21.984-52.586l-0.008-0.008zM328.407 659.767c-3.585 3.592-8.542 5.815-14.018 5.815-0.069 0-0.138 0-0.207-0.001h0.011c-5.531-0.043-10.537-2.252-14.22-5.819l0.006 0.005c-3.592-3.585-5.815-8.542-5.815-14.018 0-0.069 0-0.138 0.001-0.207v0.011c0.081-5.524 2.281-10.519 5.821-14.223l-0.008 0.008c3.585-3.592 8.542-5.815 14.018-5.815 0.069 0 0.138 0 0.207 0.001h-0.011c5.531 0.043 10.537 2.252 14.22 5.819l-0.006-0.005c3.592 3.585 5.815 8.542 5.815 14.018 0 0.069 0 0.138-0.001 0.207v-0.011c-0.040 5.531-2.249 10.539-5.819 14.22l0.005-0.005zM842.947 815.585c-2.614 34.398-29.829 61.679-63.963 64.382l-0.243 0.015c-1.511 0.117-3.271 0.184-5.047 0.184-38.194 0-69.157-30.963-69.157-69.157 0-0.009 0-0.017 0-0.026v0.001c0-11.044 8.953-19.996 19.996-19.996s19.996 8.953 19.996 19.996v0c0.101 16.189 13.248 29.274 29.451 29.274 0.753 0 1.5-0.028 2.239-0.084l-0.098 0.006c15.279-1.174 27.231-13.86 27.231-29.338 0-13.909-9.652-25.563-22.624-28.631l-0.2-0.040c-15.192-3.365-26.386-16.721-26.386-32.691 0-0.108 0.001-0.215 0.002-0.322v0.016-36c0-11.044 8.953-19.996 19.996-19.996s19.996 8.953 19.996 19.996v0 31.208c28.588 8.76 49.018 34.92 49.018 65.851 0 1.883-0.076 3.748-0.224 5.593l0.016-0.243zM787.972 655.966c-3.585 3.592-8.542 5.815-14.018 5.815-0.069 0-0.138 0-0.207-0.001h0.011c-5.519-0.052-10.513-2.259-14.188-5.819l0.005 0.005c-3.592-3.585-5.815-8.542-5.815-14.018 0-0.069 0-0.138 0.001-0.207v0.011c0.081-5.524 2.281-10.519 5.821-14.223l-0.008 0.008c3.532-3.591 8.442-5.816 13.873-5.816 0.109 0 0.218 0.001 0.326 0.003h-0.016c5.531 0.043 10.537 2.252 14.22 5.819l-0.006-0.005c3.585 3.656 5.798 8.669 5.798 14.199s-2.213 10.543-5.801 14.202l0.003-0.003zM923.763 959.936h-300.010c-55.204-0.036-99.946-44.778-99.982-99.978v-227.982c0.036-55.204 44.778-99.946 99.978-99.982h75.709l58.584-76.184c3.636-4.757 9.313-7.794 15.7-7.794 0.039 0 0.079 0 0.118 0h-0.006c6.408 0.056 12.099 3.074 15.779 7.751l0.033 0.043 58.009 76.184h75.801c55.204 0.036 99.946 44.778 99.982 99.978v227.982c0 0.076 0 0.166 0 0.256 0 55.066-44.631 99.708-99.693 99.726h-0.002zM983.752 631.944v0c-0.109-33.087-26.902-59.881-59.979-59.989h-85.618c-6.454-0.069-12.19-3.080-15.94-7.754l-0.031-0.041-48.202-63.183-48.585 63.407c-3.636 4.757-9.313 7.794-15.7 7.794-0.039 0-0.079 0-0.118 0h-85.825c-33.087 0.109-59.881 26.902-59.989 59.979v227.796c0.109 33.087 26.902 59.881 59.979 59.989h299.988c33.101-0.091 59.912-26.891 60.021-59.979v-0.010z" />
<glyph unicode="&#xe91e;" glyph-name="menu" horiz-adv-x="992" d="M213.29 739.893h-213.29v220.107h213.29zM43.112 783.005h126.939v133.882h-126.939zM329.277 879.488h662.499v-43.112h-662.499v43.112zM213.29 337.962h-213.29v220.107h213.29zM43.112 381.075h126.939v133.851h-126.939zM329.277 477.557h662.499v-43.112h-662.499v43.112zM213.29-64h-213.29v220.107h213.29zM43.112-20.888h126.939v133.882h-126.939zM329.277 75.595h662.499v-43.112h-662.499v43.112z" />
<glyph unicode="&#xe91f;" glyph-name="wallet" horiz-adv-x="893" d="M795.096 576.659h-702.732c-34.139 0.037-61.814 27.655-61.943 61.769v0.174c0.074 34.167 27.77 61.841 61.939 61.878h105.054c0.21-0.010 0.455-0.016 0.702-0.016 8.418 0 15.243 6.825 15.243 15.243s-6.825 15.243-15.243 15.243c-0.247 0-0.493-0.006-0.737-0.017l0.034 0.001h-105.051c-51.011-0.074-92.341-41.415-92.397-92.424v-0.005s0 0 0 0v-509.071c0.386-8.111 7.055-14.541 15.227-14.541s14.841 6.43 15.226 14.506l0.001 0.034v440.688c16.276-14.813 38.007-23.884 61.856-23.884 0.031 0 0.061 0 0.092 0h702.727c17.241-0.018 31.212-13.99 31.23-31.229v-107.868c0.386-8.111 7.055-14.541 15.227-14.541s14.841 6.43 15.226 14.506l0.001 0.034v107.866c-0.074 34.031-27.65 61.597-61.679 61.652h-0.005zM841.634 150.438c-8.418 0-15.243-6.825-15.243-15.243v0-137.543c-0.018-17.241-13.99-31.212-31.229-31.23h-702.798c-34.207 0.037-61.924 27.766-61.943 61.973v50.165c-0.386 8.111-7.055 14.541-15.227 14.541s-14.841-6.43-15.226-14.506l-0.001-0.034v-50.227c0.055-51.014 41.386-92.355 92.39-92.429h702.739c34.045 0.055 61.629 27.639 61.684 61.679v137.613c0 0 0 0 0 0 0 8.384-6.769 15.188-15.141 15.243h-0.005zM809.142 731.031h-12.071c-0.21 0.010-0.455 0.016-0.702 0.016-8.418 0-15.243-6.825-15.243-15.243s6.825-15.243 15.243-15.243c0.247 0 0.493 0.006 0.737 0.017l-0.034-0.001h12.071c9.491 0 17.185-7.694 17.185-17.185v0-88.060c0.386-8.111 7.055-14.541 15.227-14.541s14.841 6.43 15.226 14.506l0.001 0.034v88.060c-0.037 26.295-21.343 47.602-47.635 47.638h-0.004zM757.037 736.695l-205.473 205.408c-11.057 11.057-26.332 17.896-43.205 17.896s-32.148-6.839-43.205-17.896l-65.924-65.924c-3.040-2.796-4.938-6.792-4.938-11.232 0-8.418 6.825-15.243 15.243-15.243 4.432 0 8.422 1.891 11.207 4.911l65.934 65.934c5.544 5.534 13.198 8.956 21.651 8.956s16.107-3.422 21.651-8.957v0l205.441-205.441c5.536-5.549 8.959-13.208 8.959-21.667s-3.423-16.118-8.96-21.668l-47.217-47.217c-3.040-2.796-4.938-6.792-4.938-11.232 0-8.418 6.825-15.243 15.243-15.243 4.432 0 8.422 1.891 11.207 4.911l47.325 47.292c11.041 11.064 17.869 26.337 17.869 43.205s-6.828 32.14-17.87 43.206l0.001-0.001zM385.8 841.195c-2.758 2.758-6.568 4.463-10.777 4.463s-8.019-1.706-10.777-4.463l-216.541-216.541c-2.868-2.775-4.648-6.659-4.648-10.959 0-8.418 6.825-15.243 15.243-15.243 4.3 0 8.183 1.78 10.955 4.644l216.545 216.545c2.758 2.758 4.463 6.568 4.463 10.777s-1.706 8.019-4.463 10.777v0zM664.964 649.606c-1.329 5.211-5.218 9.283-10.216 10.845l-0.108 0.029c-14.216 4.49-24.343 17.559-24.343 32.994s10.127 28.505 24.098 32.927l0.245 0.067c6.286 1.975 10.766 7.75 10.766 14.571 0 4.205-1.703 8.012-4.456 10.77v0l-94.241 94.241c-2.758 2.753-6.565 4.456-10.769 4.456-6.821 0-12.596-4.48-14.542-10.658l-0.029-0.108c-4.49-14.216-17.559-24.343-32.994-24.343s-28.505 10.127-32.927 24.098l-0.067 0.245c-1.936 6.35-7.742 10.891-14.608 10.891-4.186 0-7.978-1.687-10.733-4.419l-221.427-221.427c-2.651-2.739-4.284-6.476-4.284-10.595 0-8.418 6.825-15.243 15.243-15.243 4.119 0 7.856 1.634 10.599 4.288l206.893 206.925c12.007-15.327 30.509-25.091 51.292-25.114h0.004c0.003 0 0.007 0 0.011 0 20.788 0 39.294 9.771 51.177 24.971l0.108 0.143 65.212-65.212c-15.34-12.002-25.108-30.516-25.108-51.312s9.768-39.309 24.966-51.204l0.143-0.107-17.573-17.573c-3.040-2.796-4.938-6.792-4.938-11.232 0-8.418 6.825-15.243 15.243-15.243 4.432 0 8.422 1.891 11.207 4.911l32.082 32.082c2.775 2.761 4.492 6.583 4.492 10.806 0 1.253-0.151 2.47-0.436 3.635l0.022-0.104zM511.272 617.34c-11.394 47.297-53.341 81.893-103.368 81.893s-91.973-34.596-103.22-81.168l-0.148-0.725c-0.196-0.918-0.309-1.972-0.309-3.052 0-8.418 6.825-15.243 15.243-15.243 7.041 0 12.968 4.775 14.718 11.263l0.025 0.107c8.149 33.701 38.050 58.344 73.707 58.344s65.557-24.643 73.601-57.826l0.106-0.518c1.775-6.595 7.701-11.37 14.743-11.37 8.418 0 15.243 6.825 15.243 15.243 0 1.080-0.112 2.135-0.326 3.152l0.017-0.099zM843.899 381.737h-135.925c-61.074 0-110.585-49.51-110.585-110.585s49.51-110.585 110.585-110.585h135.925c26.992 0.037 48.864 21.908 48.901 48.897v123.372c-0.037 26.992-21.908 48.864-48.897 48.901h-0.004zM862.346 209.468c0-10.188-8.259-18.447-18.447-18.447h-135.925c-0.479-0.010-1.044-0.016-1.61-0.016-44.255 0-80.131 35.876-80.131 80.131s35.876 80.131 80.131 80.131c0.566 0 1.131-0.006 1.694-0.018l-0.084 0.001h135.925c10.188 0 18.447-8.259 18.447-18.447v0zM705.936 324.551c-29.474 0-53.367-23.893-53.367-53.367s23.893-53.367 53.367-53.367c29.474 0 53.367 23.893 53.367 53.367v0c-0.037 29.459-23.908 53.33-53.363 53.367h-0.003zM705.936 248.271c-12.655 0-22.913 10.259-22.913 22.913s10.259 22.913 22.913 22.913c12.655 0 22.913-10.259 22.913-22.913v0c-0.018-12.647-10.266-22.895-22.911-22.913h-0.002z" />
<glyph unicode="&#xe920;" glyph-name="question-circle-o" d="M474.571 270.742h63.559v-64.265h-63.559v64.265zM511.294 664.099c-1.519 0.059-3.302 0.092-5.093 0.092-32.827 0-63.039-11.199-87.023-29.985l0.309 0.233c-21.722-18.006-35.455-44.995-35.455-75.191 0-1.87 0.053-3.728 0.157-5.572l-0.012 0.256h58.615c-0.072 1.045-0.114 2.264-0.114 3.493 0 16.794 7.713 31.786 19.79 41.628l0.098 0.077c12.744 9.708 28.888 15.554 46.396 15.554 0.572 0 1.142-0.006 1.71-0.019l-0.085 0.001c1.548 0.121 3.353 0.19 5.173 0.19 19.14 0 36.502-7.614 49.221-19.979l-0.017 0.016c10.607-12.284 17.068-28.406 17.068-46.037 0-1.444-0.043-2.877-0.129-4.299l0.009 0.196c-0.793-17.927-7.037-34.255-17.102-47.527l0.153 0.211c-14.781-20.975-29.152-39.157-44.421-56.529l0.636 0.739c-15.412-12.874-28.165-28.33-37.722-45.786l-0.413-0.824c-5.098-15.678-8.037-33.719-8.037-52.446 0-3.412 0.098-6.802 0.29-10.166l-0.021 0.466h61.44c-0.128 2.313-0.2 5.019-0.2 7.743 0 11.777 1.36 23.236 3.931 34.23l-0.2-1.013c4.044 12.068 10.857 22.298 19.713 30.313l0.061 0.054c21.253 20.997 40.326 44.107 56.906 69.019l1.003 1.601c13.431 19.853 21.563 44.255 21.892 70.537l0.001 0.084c0.124 1.966 0.194 4.264 0.194 6.578 0 31.507-13.059 59.965-34.060 80.255l-0.032 0.031c-23.083 19.906-53.367 32.030-86.482 32.030-2.867 0-5.713-0.091-8.536-0.27l0.385 0.020zM512 960c-282.77 0-512-229.23-512-512s229.23-512 512-512c282.77 0 512 229.23 512 512v0c-0.402 282.609-229.392 511.599-511.962 512h-0.038zM512 6.621c-243.767 0-441.379 197.612-441.379 441.379s197.612 441.379 441.379 441.379c243.767 0 441.379-197.612 441.379-441.379v0c0-243.767-197.612-441.379-441.379-441.379v0z" />
</font>
</defs>
</svg>
